<mxfile host="65bd71144e">
    <diagram id="Zf1DiDaEplDEvpnU-PIB" name="Page-1">
        <mxGraphModel dx="1624" dy="405" grid="1" gridSize="10" guides="1" tooltips="1" connect="1" arrows="1" fold="1" page="1" pageScale="1" pageWidth="850" pageHeight="1100" math="1" shadow="0">
            <root>
                <mxCell id="0"/>
                <mxCell id="1" parent="0"/>
                <mxCell id="2" value="Newton mốc bất kỳ&lt;br&gt;$$P_n(x)=f(x_0)+f[x_0,x_1](x-x_0)+\ldots+f[x_0,\ldots,x_n]\prod_{i=0}^{n-1}(x-x_i)$$" style="shape=note;whiteSpace=wrap;html=1;backgroundOutline=1;darkOpacity=0.05;" parent="1" vertex="1">
                    <mxGeometry x="-100" y="40" width="440" height="180" as="geometry"/>
                </mxCell>
                <mxCell id="3" value="Tỉ sai phân&lt;br&gt;$$f[x_0,x_1]=\frac{f(x_1)-f(x_0)}{x_1-x_0}\\&lt;br&gt;f[x_0,\ldots,x_n]=\frac{f[x_1,\ldots,x_n]-f[x_0,\ldots,x_{n-1}]}{x_n-x_0}$$" style="shape=note;whiteSpace=wrap;html=1;backgroundOutline=1;darkOpacity=0.05;" parent="1" vertex="1">
                    <mxGeometry x="400" y="40" width="320" height="160" as="geometry"/>
                </mxCell>
            </root>
        </mxGraphModel>
    </diagram>
</mxfile>